<?xml version="1.0" standalone="no"?>
<!DOCTYPE svg PUBLIC "-//W3C//DTD SVG 20010904//EN"
 "http://www.w3.org/TR/2001/REC-SVG-20010904/DTD/svg10.dtd">
<svg version="1.0" xmlns="http://www.w3.org/2000/svg"
 width="221.000000pt" height="317.000000pt" viewBox="0 0 221.000000 317.000000"
 preserveAspectRatio="xMidYMid meet">

<g transform="translate(0.000000,317.000000) scale(0.100000,-0.100000)"
fill="#FFFFFF" stroke="none">
<path d="M90 2295 l0 -765 1015 0 1015 0 0 99 0 99 -102 4 c-158 6 -239 55
-297 177 -25 55 -26 60 -26 266 0 245 9 283 80 363 65 72 125 96 247 96 l98 1
0 213 0 212 -619 0 -619 0 -4 -242 c-5 -270 -12 -305 -73 -390 -25 -34 -52
-55 -102 -80 -63 -31 -74 -33 -169 -33 -96 0 -105 2 -170 35 -79 40 -124 93
-150 173 -14 41 -18 103 -22 295 l-4 242 -49 0 -49 0 0 -765z m1345 610 c69
-30 112 -72 147 -143 l33 -67 0 -220 0 -220 -33 -68 c-59 -119 -170 -174 -329
-165 -166 10 -268 96 -302 256 -14 68 -14 325 0 394 27 128 94 205 214 245 55
18 217 11 270 -12z"/>
<path d="M1197 2720 c-15 -12 -31 -38 -37 -58 -13 -48 -13 -326 0 -374 15 -54
51 -78 116 -78 121 0 134 26 134 265 0 239 -13 265 -134 265 -39 0 -61 -6 -79
-20z"/>
<path d="M402 2823 c2 -200 6 -243 20 -269 20 -37 55 -54 113 -54 57 0 87 14
111 53 17 29 19 57 22 270 l4 237 -137 0 -137 0 4 -237z"/>
<path d="M1951 2434 c-43 -30 -51 -71 -51 -248 0 -234 19 -272 136 -270 87 0
84 -8 84 270 0 230 -1 244 -19 254 -31 16 -123 12 -150 -6z"/>
<path d="M542 1433 c2 -10 10 -18 18 -18 8 0 16 8 18 18 2 12 -3 17 -18 17
-15 0 -20 -5 -18 -17z"/>
<path d="M1222 1433 c2 -10 10 -18 18 -18 8 0 16 8 18 18 2 12 -3 17 -18 17
-15 0 -20 -5 -18 -17z"/>
<path d="M101 1427 c12 -9 18 -33 20 -94 5 -100 21 -123 85 -123 60 0 74 23
74 123 0 60 3 79 15 83 27 11 16 24 -20 24 -36 0 -47 -13 -20 -24 30 -11 15
-167 -18 -188 -22 -14 -56 -8 -67 11 -5 11 -10 54 -10 97 0 61 3 79 18 90 15
12 10 13 -38 13 -46 0 -52 -2 -39 -12z"/>
<path d="M1318 1390 c-9 -17 -13 -30 -8 -30 6 0 10 -28 10 -63 0 -36 5 -68 12
-75 15 -15 54 -16 63 -2 3 6 -3 10 -13 10 -25 0 -32 18 -32 81 0 46 2 49 25
49 14 0 25 5 25 10 0 6 -11 10 -25 10 -18 0 -25 5 -25 20 0 28 -12 25 -32 -10z"/>
<path d="M1613 1403 c-4 -10 -11 -21 -17 -25 -8 -6 -7 -10 1 -16 7 -4 13 -37
15 -77 3 -65 5 -70 26 -73 13 -2 31 0 40 4 14 6 13 8 -8 13 -23 6 -25 12 -28
69 -3 57 -1 62 18 62 11 0 20 5 20 10 0 6 -9 10 -20 10 -13 0 -20 7 -20 20 0
25 -18 26 -27 3z"/>
<path d="M341 1371 c-9 -6 -10 -11 -2 -15 6 -4 11 -34 11 -66 0 -46 -4 -61
-17 -69 -14 -8 -7 -10 32 -10 39 0 46 2 33 10 -14 8 -18 23 -18 64 0 45 4 56
21 65 37 20 49 6 49 -58 0 -32 -5 -63 -12 -70 -9 -9 -3 -12 31 -12 39 0 41 1
27 16 -11 10 -16 34 -16 69 0 29 -3 60 -6 69 -8 21 -52 20 -76 -1 -17 -15 -18
-15 -18 0 0 18 -17 22 -39 8z"/>
<path d="M543 1372 c-8 -5 -9 -13 -3 -22 16 -25 12 -107 -6 -124 -14 -15 -11
-16 33 -16 37 1 44 3 31 11 -15 8 -18 24 -18 84 0 75 -6 87 -37 67z"/>
<path d="M620 1373 c0 -19 65 -163 72 -161 7 3 78 154 78 165 0 2 -12 3 -26 3
-21 0 -24 -3 -15 -13 8 -10 7 -26 -5 -61 -18 -52 -23 -51 -47 10 -12 31 -13
44 -4 53 8 8 3 11 -21 11 -18 0 -32 -3 -32 -7z"/>
<path d="M804 1359 c-26 -29 -26 -99 0 -128 23 -25 87 -29 106 -6 10 12 6 13
-26 8 -40 -7 -64 12 -64 49 0 15 8 18 50 18 41 0 50 3 50 18 0 57 -77 84 -116
41z m76 -9 c15 -27 5 -40 -31 -40 -31 0 -35 9 -19 41 14 25 36 24 50 -1z"/>
<path d="M959 1373 c-1 -5 0 -36 1 -71 1 -37 -3 -69 -10 -77 -11 -13 -5 -15
36 -15 47 0 48 1 26 16 -41 28 -21 124 26 124 7 0 12 7 12 15 0 21 -16 19 -40
-7 l-20 -22 0 22 c0 20 -28 33 -31 15z"/>
<path d="M1082 1368 c-29 -29 -5 -77 46 -93 16 -5 22 -13 20 -28 -4 -31 -42
-34 -62 -5 l-16 22 0 -27 c0 -25 3 -27 43 -27 50 0 67 13 67 52 0 22 -7 31
-37 46 -25 11 -38 24 -38 37 0 26 35 32 52 9 12 -17 13 -16 13 4 0 19 -6 22
-38 22 -21 0 -43 -5 -50 -12z"/>
<path d="M1223 1372 c-8 -5 -9 -13 -3 -22 16 -25 12 -107 -6 -124 -14 -15 -11
-16 33 -16 37 1 44 3 31 11 -15 8 -18 24 -18 84 0 75 -6 87 -37 67z"/>
<path d="M1437 1373 c-4 -3 -7 -16 -7 -27 0 -20 1 -20 16 2 23 34 59 26 59
-12 0 -25 -5 -31 -32 -38 -40 -10 -58 -40 -43 -68 12 -23 59 -27 78 -8 9 9 12
9 12 0 0 -7 12 -12 26 -12 20 0 24 3 16 13 -5 6 -12 40 -14 75 -3 40 -10 67
-19 73 -16 10 -83 12 -92 2z m63 -138 c-16 -20 -40 -7 -40 21 0 16 8 28 23 33
19 7 22 5 25 -16 2 -13 -2 -30 -8 -38z"/>
<path d="M323 1102 c14 -15 17 -40 17 -123 l0 -104 45 -3 c62 -4 95 28 95 93
0 68 -41 101 -91 75 -17 -10 -19 -7 -19 35 0 44 -1 45 -32 45 -29 0 -30 -1
-15 -18z m115 -112 c13 -36 -1 -95 -24 -104 -29 -11 -44 13 -44 69 0 58 4 65
36 65 15 0 25 -9 32 -30z"/>
<path d="M173 1102 c-12 -2 -34 -17 -49 -35 -23 -28 -26 -37 -22 -91 4 -49 9
-63 32 -83 69 -59 156 -6 156 97 0 33 -22 100 -33 100 -1 0 -16 4 -32 8 -17 4
-40 6 -52 4z m64 -42 c7 -14 13 -46 13 -72 0 -93 -44 -134 -88 -83 -21 25 -24
36 -20 91 2 34 10 69 18 78 19 24 62 16 77 -14z"/>
<path d="M820 1065 c0 -7 -8 -19 -17 -24 -10 -6 -12 -11 -5 -11 8 0 12 -20 12
-64 0 -82 23 -110 74 -90 23 9 19 21 -6 20 -21 -1 -23 4 -26 66 -3 62 -1 67
20 71 l23 4 -22 2 c-16 1 -23 7 -23 21 0 11 -7 20 -15 20 -8 0 -15 -7 -15 -15z"/>
<path d="M540 1032 c-15 -12 -24 -33 -27 -64 -5 -40 -2 -50 20 -72 29 -29 64
-33 93 -11 18 14 17 14 -11 9 -33 -6 -60 15 -67 51 -3 18 3 20 50 23 43 3 53
6 48 18 -3 9 -6 19 -6 24 0 17 -32 40 -55 40 -12 0 -33 -8 -45 -18z m54 2 c9
-3 16 -17 16 -30 0 -20 -5 -24 -30 -24 -32 0 -36 9 -20 41 12 21 12 21 34 13z"/>
<path d="M742 1027 c-19 -19 -22 -19 -22 -4 0 10 -8 17 -18 17 -16 0 -17 -8
-14 -65 3 -43 0 -70 -8 -80 -11 -13 -6 -15 31 -15 37 0 41 2 25 13 -13 10 -17
24 -14 57 2 38 8 47 31 58 27 13 34 26 19 36 -5 3 -18 -5 -30 -17z"/>
<path d="M943 1043 c-7 -2 -13 -14 -12 -26 0 -12 3 -16 6 -9 10 24 40 33 57
16 27 -26 20 -51 -16 -58 -41 -8 -58 -23 -58 -51 0 -35 26 -51 61 -38 17 7 31
7 35 2 7 -12 44 -12 44 0 0 6 -4 13 -10 16 -5 3 -10 33 -10 65 0 49 -4 61 -22
74 -22 16 -51 19 -75 9z m67 -101 c0 -28 -25 -56 -44 -49 -21 8 -21 43 2 56
26 16 42 13 42 -7z"/>
<path d="M197 781 c-17 -6 -17 -8 -3 -20 9 -7 16 -22 16 -32 0 -15 -7 -19 -35
-19 -49 0 -75 -31 -75 -90 0 -54 21 -80 63 -80 35 0 44 18 10 22 -21 2 -29 10
-37 36 -12 45 3 96 31 100 29 4 45 -28 43 -86 -4 -69 -2 -72 27 -72 21 0 24 3
15 12 -8 8 -12 50 -12 125 0 118 -1 121 -43 104z"/>
<path d="M1156 781 c-14 -5 -16 -10 -8 -15 16 -10 16 -198 0 -214 -9 -9 -2
-12 31 -12 35 0 41 3 33 13 -6 7 -13 62 -14 122 -2 61 -7 109 -13 111 -5 1
-19 -1 -29 -5z"/>
<path d="M551 756 c-13 -7 -30 -24 -37 -37 -28 -51 -9 -157 31 -173 9 -3 39
-6 66 -6 48 0 49 0 49 31 l0 32 -21 -27 c-27 -34 -68 -32 -86 4 -21 41 -16
123 8 154 26 33 44 33 74 0 l25 -27 0 25 c0 39 -59 52 -109 24z"/>
<path d="M876 720 c-8 -16 -11 -30 -6 -30 5 0 10 -33 12 -72 3 -68 5 -73 26
-76 13 -2 31 0 40 4 14 6 13 8 -8 13 -23 6 -25 12 -28 69 -3 61 -2 62 23 62
14 0 25 5 25 10 0 6 -11 10 -25 10 -18 0 -25 5 -25 20 0 29 -16 24 -34 -10z"/>
<path d="M310 692 c-31 -25 -34 -100 -6 -131 22 -24 87 -29 104 -8 9 10 4 12
-25 9 -39 -5 -63 14 -63 50 0 15 8 18 50 18 46 0 50 2 50 23 0 51 -66 74 -110
39z m70 -12 c15 -27 5 -40 -31 -40 -31 0 -35 9 -19 41 14 25 36 24 50 -1z"/>
<path d="M713 703 c-7 -2 -13 -14 -13 -26 l0 -20 23 21 c29 27 43 28 57 3 16
-32 12 -38 -32 -53 -40 -12 -43 -16 -43 -48 0 -31 3 -35 28 -38 16 -2 34 2 42
8 9 7 15 8 20 0 3 -5 16 -10 28 -10 16 0 18 3 9 12 -7 7 -12 38 -12 69 0 39
-5 63 -16 73 -15 15 -65 20 -91 9z m72 -116 c-11 -42 -55 -48 -55 -7 0 22 40
54 53 41 4 -4 5 -20 2 -34z"/>
<path d="M997 703 c-4 -3 -7 -16 -7 -27 0 -20 1 -20 16 2 23 33 59 26 59 -12
0 -23 -6 -30 -34 -40 -43 -14 -60 -39 -45 -64 13 -21 60 -28 80 -11 10 8 14 8
14 0 0 -6 12 -11 27 -11 25 0 25 1 10 18 -12 13 -17 36 -17 73 0 30 -5 60 -12
67 -13 13 -80 17 -91 5z m59 -141 c-14 -15 -18 -15 -31 -1 -19 19 -10 48 19
59 18 6 22 3 24 -18 2 -13 -4 -32 -12 -40z"/>
<path d="M1249 706 c-6 -7 8 -142 16 -156 10 -16 57 -12 77 7 17 15 18 15 18
0 0 -12 9 -17 27 -17 21 0 24 3 15 12 -7 7 -12 42 -12 86 0 70 -1 73 -22 70
-15 -2 -21 -9 -19 -18 15 -51 12 -96 -8 -114 -35 -32 -50 -15 -53 61 -2 52 -7
68 -18 71 -9 1 -18 0 -21 -2z"/>
<path d="M1455 704 c-7 -3 -9 -30 -7 -69 3 -43 0 -70 -8 -80 -11 -13 -7 -15
29 -15 39 0 41 1 27 16 -23 22 -21 96 2 117 26 24 41 21 52 -9 15 -38 12 -91
-6 -108 -14 -15 -12 -16 27 -16 34 0 40 3 31 12 -7 7 -12 36 -12 66 0 29 -5
62 -10 73 -13 24 -57 25 -82 2 -17 -15 -18 -15 -18 0 0 17 -6 19 -25 11z"/>
<path d="M1612 703 c2 -5 21 -42 42 -84 42 -82 42 -103 1 -119 -30 -11 -33
-30 -5 -30 26 0 46 33 86 143 19 50 34 93 34 95 0 1 -12 2 -26 2 -21 0 -24 -3
-15 -14 9 -10 9 -25 -1 -60 -7 -25 -15 -46 -18 -46 -3 0 -15 22 -26 49 -16 36
-19 52 -11 60 8 8 1 11 -27 11 -21 0 -36 -3 -34 -7z"/>
<path d="M1807 703 c-4 -3 -7 -16 -7 -27 0 -20 0 -20 16 2 21 30 52 29 60 -2
7 -30 -1 -46 -25 -46 -11 0 -29 -8 -41 -18 -18 -14 -21 -25 -16 -45 6 -25 9
-26 76 -25 60 0 67 2 55 15 -10 9 -15 35 -15 72 0 31 -5 62 -12 69 -13 13 -80
17 -91 5z m59 -141 c-15 -15 -17 -15 -32 0 -20 20 -12 46 18 57 20 7 23 5 26
-17 2 -13 -4 -32 -12 -40z"/>
<path d="M90 150 l0 -50 1015 0 1015 0 0 50 0 50 -1015 0 -1015 0 0 -50z"/>
</g>
</svg>
